<?xml version="1.0" encoding="UTF-8"?>
<!-- Generator: visioncortex VTracer 0.6.4 -->
<svg version="1.1" xmlns="http://www.w3.org/2000/svg" width="2212" height="284">
<path d="M0 0 C1.21 -0.0007 2.4201 -0.0019 3.6301 -0.0035 C6.9385 -0.0065 10.2469 -0.0034 13.5553 0.0008 C17.1608 0.0042 20.7663 0.0018 24.3718 0.0002 C30.6852 -0.0019 36.9985 -0.0002 43.3119 0.0038 C52.6995 0.0099 62.0872 0.0102 71.4749 0.0093 C87.2678 0.008 103.0607 0.0113 118.8536 0.0173 C134.4886 0.0232 150.1235 0.0271 165.7585 0.0282 C167.2172 0.0283 167.2172 0.0283 168.7053 0.0284 C173.6441 0.0287 178.5828 0.029 183.5215 0.0293 C218.4942 0.0314 253.4669 0.0381 288.4397 0.0476 C322.4133 0.0568 356.3869 0.0639 390.3606 0.0681 C391.408 0.0682 392.4553 0.0684 393.5345 0.0685 C404.0528 0.0698 414.5711 0.0711 425.0894 0.0724 C446.516 0.0749 467.9427 0.0777 489.3693 0.0807 C490.847 0.0809 490.847 0.0809 492.3546 0.0811 C543.3215 0.0882 594.2885 0.0996 645.2554 0.1119 C645.9723 0.1121 646.6893 0.1123 647.4279 0.1125 C661.513 0.1159 675.598 0.1195 689.6831 0.123 C689.6831 35.763 689.6831 71.403 689.6831 108.123 C631.0768 131.8149 631.0768 131.8149 613.9703 133.9119 C613.056 134.0293 612.1417 134.1467 611.1997 134.2676 C600.8377 135.4926 590.5076 135.5392 580.0873 135.5016 C577.9001 135.5049 575.7129 135.5095 573.5258 135.5153 C568.8143 135.5249 564.1029 135.5255 559.3914 135.5177 C552.3842 135.5061 545.3771 135.5121 538.37 135.5215 C526.5685 135.5369 514.767 135.539 502.9655 135.5337 C486.8281 135.5267 470.6908 135.5394 454.5534 135.5572 C447.0124 135.5655 439.4714 135.5729 431.9303 135.58 C431.1756 135.5807 430.4209 135.5814 429.6434 135.5821 C411.7151 135.5988 393.7869 135.6061 375.8586 135.6118 C375.0751 135.6121 374.2916 135.6123 373.4844 135.6126 C361.5715 135.6164 349.6585 135.6198 337.7456 135.623 C325.0573 135.6265 312.3691 135.6302 299.6809 135.6343 C298.5084 135.6347 298.5084 135.6347 297.3122 135.635 C279.4304 135.6408 261.5487 135.6493 243.667 135.6661 C242.5364 135.6672 242.5364 135.6672 241.3829 135.6683 C233.8531 135.6754 226.3233 135.683 218.7936 135.6913 C202.6855 135.709 186.5775 135.7186 170.4694 135.7114 C158.7183 135.7063 146.9672 135.7115 135.2162 135.7273 C128.867 135.7354 122.5179 135.7389 116.1687 135.7284 C68.0814 135.6543 23.5358 138.4203 -21.3169 157.373 C-22.9896 158.0708 -24.6628 158.7673 -26.3365 159.4629 C-29.8588 160.9274 -33.3794 162.396 -36.899 163.8672 C-45.0945 167.2866 -53.319 170.6355 -61.5412 173.9902 C-66.1798 175.8833 -70.8167 177.7806 -75.4536 179.6777 C-76.8202 180.2367 -76.8202 180.2367 -78.2143 180.807 C-87.5217 184.6149 -96.826 188.4304 -106.1294 192.248 C-106.9266 192.5752 -107.7238 192.9023 -108.5451 193.2393 C-114.1358 195.5336 -119.7264 197.8283 -125.3169 200.123 C-131.7126 202.7484 -138.1084 205.3735 -144.5044 207.998 C-145.3012 208.325 -146.098 208.652 -146.9189 208.9888 C-160.9791 214.758 -175.0448 220.5134 -189.1118 226.266 C-201.3178 231.2578 -213.5219 236.2543 -225.7221 241.2603 C-228.1146 242.242 -230.5071 243.2234 -232.8997 244.2048 C-240.3159 247.2474 -247.731 250.2926 -255.1435 253.3441 C-258.6332 254.7805 -262.1234 256.2156 -265.6136 257.6506 C-267.2513 258.3243 -268.8887 258.9986 -270.5258 259.6736 C-303.9793 273.467 -303.9793 273.467 -315.3794 276.3105 C-316.7934 276.6715 -316.7934 276.6715 -318.2359 277.0398 C-329.4391 279.7946 -340.8651 281.7342 -352.3169 283.123 C-352.9877 283.2062 -353.6585 283.2894 -354.3497 283.3751 C-363.8095 284.3957 -373.2679 284.2602 -382.771 284.2461 C-384.7604 284.2468 -386.7498 284.248 -388.7392 284.2496 C-394.2116 284.2527 -399.684 284.2495 -405.1564 284.2453 C-410.4936 284.2422 -415.8307 284.2439 -421.1679 284.2454 C-432.214 284.2484 -443.2602 284.2466 -454.3063 284.2423 C-465.4976 284.2379 -476.689 284.2357 -487.8804 284.2362 C-488.9412 284.2362 -488.9412 284.2362 -490.0235 284.2362 C-493.6298 284.2364 -497.2361 284.2366 -500.8424 284.2368 C-526.9356 284.2382 -553.0288 284.2348 -579.122 284.2288 C-604.9612 284.2229 -630.8004 284.219 -656.6395 284.2179 C-657.4421 284.2179 -658.2447 284.2179 -659.0716 284.2178 C-666.402 284.2175 -673.7324 284.2172 -681.0628 284.217 C-699.2851 284.2163 -717.5074 284.2154 -735.7297 284.2142 C-736.5594 284.2141 -737.3892 284.2141 -738.2442 284.214 C-778.6044 284.2114 -818.9647 284.2051 -859.325 284.1985 C-873.3302 284.1962 -887.3354 284.1939 -901.3406 284.1917 C-902.6435 284.1915 -902.6435 284.1915 -903.9728 284.1913 C-944.3553 284.185 -984.7379 284.1812 -1025.1205 284.1782 C-1027.7423 284.178 -1030.3641 284.1778 -1032.9859 284.1776 C-1050.3607 284.1763 -1067.7356 284.175 -1085.1105 284.1737 C-1119.6819 284.1713 -1154.2533 284.1685 -1188.8247 284.1656 C-1190.471 284.1655 -1192.1174 284.1653 -1193.7638 284.1652 C-1267.8755 284.1589 -1341.9872 284.1496 -1416.0989 284.1389 C-1417.1398 284.1388 -1417.1398 284.1388 -1418.2017 284.1386 C-1428.4303 284.1371 -1438.6589 284.1357 -1448.8875 284.1342 C-1449.7883 284.134 -1449.7883 284.134 -1450.7073 284.1339 C-1474.5772 284.1304 -1498.447 284.1267 -1522.3169 284.123 C-1522.3169 233.633 -1522.3169 183.143 -1522.3169 131.123 C-1508.3071 131.115 -1494.2972 131.1069 -1479.8628 131.0985 C-1470.3574 131.093 -1460.852 131.0874 -1451.3466 131.0818 C-1450.4332 131.0813 -1450.4332 131.0813 -1449.5013 131.0807 C-1439.5522 131.0748 -1429.6032 131.0689 -1419.6541 131.063 C-1418.6496 131.0624 -1418.6496 131.0624 -1417.6247 131.0618 C-1345.8505 131.019 -1274.0763 130.9733 -1202.3021 130.9217 C-1200.7073 130.9206 -1199.1125 130.9194 -1197.5178 130.9183 C-1164.0411 130.8942 -1130.5644 130.8698 -1097.0878 130.8449 C-1080.2707 130.8323 -1063.4536 130.8199 -1046.6365 130.8075 C-1044.0997 130.8057 -1041.563 130.8038 -1039.0262 130.8019 C-999.976 130.7732 -960.9257 130.7461 -921.8755 130.7239 C-921.0362 130.7235 -920.1969 130.723 -919.3323 130.7225 C-905.8015 130.7148 -892.2707 130.7073 -878.74 130.6998 C-839.7547 130.6781 -800.7694 130.6554 -761.7841 130.6258 C-760.982 130.6252 -760.1798 130.6246 -759.3534 130.6239 C-741.7417 130.6106 -724.1301 130.5966 -706.5184 130.5822 C-699.4315 130.5764 -692.3445 130.5707 -685.2576 130.565 C-684.4819 130.5644 -683.7063 130.5637 -682.9072 130.5631 C-657.9403 130.543 -632.9735 130.5292 -608.0066 130.5187 C-582.8445 130.5081 -557.6824 130.4913 -532.5203 130.466 C-529.0384 130.4625 -525.5565 130.4591 -522.0746 130.4557 C-521.0508 130.4547 -521.0508 130.4547 -520.0064 130.4536 C-509.2253 130.4433 -498.4441 130.4396 -487.663 130.4387 C-477.046 130.4376 -466.4289 130.4295 -455.8119 130.4139 C-450.1388 130.4058 -444.4658 130.4009 -438.7928 130.4048 C-433.6206 130.4082 -428.4485 130.4024 -423.2763 130.3895 C-421.4275 130.3864 -419.5787 130.3866 -417.73 130.3907 C-400.9544 130.4241 -384.2149 129.3337 -367.6919 126.3105 C-366.7379 126.1381 -365.7839 125.9656 -364.8011 125.7878 C-337.3181 120.6572 -312.1082 109.7092 -286.4373 98.9979 C-273.5484 93.6208 -260.6256 88.3292 -247.6919 83.0605 C-243.5356 81.3667 -239.3794 79.6726 -235.2232 77.9785 C-234.2119 77.5664 -233.2006 77.1542 -232.1587 76.7296 C-222.4974 72.7912 -212.8434 68.8354 -203.1919 64.873 C-202.0117 64.3885 -202.0117 64.3885 -200.8076 63.8943 C-196.8819 62.2826 -192.9563 60.6707 -189.0308 59.0586 C-180.9604 55.7445 -172.8885 52.4341 -164.8169 49.123 C-161.5825 47.7963 -158.3482 46.4694 -155.1138 45.1426 C-154.3119 44.8136 -153.5101 44.4847 -152.684 44.1458 C-145.9905 41.3997 -139.2977 38.6522 -132.605 35.9044 C-128.4541 34.2003 -124.3029 32.4971 -120.1509 30.7957 C-118.9574 30.3066 -118.9574 30.3066 -117.7398 29.8076 C-116.1675 29.1633 -114.5953 28.5191 -113.023 27.8749 C-108.7746 26.1334 -104.5287 24.3859 -100.2857 22.6313 C-67.8676 9.228 -35.4182 -0.0848 0 0 Z " fill="#F4B01B" transform="translate(1522.3169202804565,-0.1230478286743164)"/>
<path d="M0 0 C4.3748 0.019 8.7496 0.0205 13.1244 0.0241 C21.3757 0.0333 29.6269 0.0579 37.8782 0.0881 C47.2859 0.1219 56.6937 0.1382 66.1015 0.1532 C85.4235 0.1844 104.7454 0.2377 124.0673 0.3042 C124.0673 7.2342 124.0673 14.1642 124.0673 21.3042 C115.079 25.5446 106.0162 29.4398 96.7927 33.1369 C92.7317 34.7651 88.6753 36.4048 84.6181 38.0425 C83.7632 38.3872 82.9082 38.732 82.0273 39.0872 C72.0686 43.1051 62.1301 47.1724 52.1923 51.2417 C50.3263 52.0054 48.4602 52.7692 46.5942 53.5329 C36.8714 57.5132 27.1513 61.4997 17.4336 65.4924 C13.4047 67.1475 9.3753 68.8013 5.3444 70.4516 C4.559 70.7732 3.7735 71.0948 2.9642 71.4262 C1.3853 72.0726 -0.1936 72.719 -1.7726 73.3653 C-6.6679 75.3708 -11.5572 77.3903 -16.4431 79.4187 C-19.7505 80.7897 -23.0614 82.1523 -26.3729 83.5133 C-27.9157 84.1496 -29.457 84.7893 -30.9966 85.4332 C-63.0771 98.8412 -94.0931 100.9276 -128.4578 100.8086 C-133.5323 100.7945 -138.6067 100.8012 -143.6811 100.8047 C-152.1733 100.8074 -160.6652 100.7941 -169.1573 100.7707 C-178.9672 100.744 -188.7769 100.7424 -198.5869 100.7541 C-208.068 100.7649 -217.5491 100.7587 -227.0303 100.7446 C-231.0509 100.7388 -235.0715 100.7389 -239.0921 100.7436 C-243.8104 100.7484 -248.5284 100.7383 -253.2466 100.7167 C-254.9764 100.7111 -256.7062 100.7106 -258.436 100.7156 C-260.7957 100.7216 -263.1546 100.7091 -265.5143 100.6919 C-266.1986 100.6979 -266.8829 100.7039 -267.588 100.7101 C-271.8602 100.6533 -274.4753 99.8098 -277.9327 97.3042 C-277.7452 95.5542 -277.7452 95.5542 -276.9327 93.3042 C-273.1433 89.7816 -269.2359 87.937 -264.46 86.0464 C-263.7218 85.7461 -262.9835 85.4458 -262.2229 85.1365 C-259.775 84.1429 -257.3226 83.1612 -254.8702 82.1792 C-253.1283 81.4743 -251.3868 80.7686 -249.6456 80.062 C-245.9626 78.5684 -242.2781 77.0789 -238.5923 75.5923 C-230.2809 72.2365 -221.9886 68.8343 -213.6947 65.4356 C-209.9821 63.9148 -206.2685 62.3964 -202.555 60.8779 C-191.5108 56.3617 -180.4709 51.835 -169.4327 47.3042 C-159.2374 43.1198 -149.0413 38.9377 -138.8428 34.7612 C-137.9075 34.3781 -136.9721 33.995 -136.0085 33.6003 C-131.3054 31.6747 -126.6014 29.7514 -121.8956 27.8327 C-113.496 24.407 -105.1043 20.9667 -96.7413 17.4526 C-83.4842 11.8997 -70.5515 6.6306 -56.4009 3.7989 C-54.8971 3.4975 -53.3944 3.191 -51.8935 2.8755 C-34.7551 -0.6339 -17.4006 -0.0885 0 0 Z " fill="#F4B01B" transform="translate(2087.9326753616333,158.69581818580627)"/>
<path d="M0 0 C4.1069 0.0115 8.2137 0.0072 12.3206 0.0053 C19.1948 0.0044 26.0689 0.0153 32.9431 0.0339 C40.8813 0.0551 48.8192 0.0585 56.7574 0.0523 C64.4311 0.0466 72.1048 0.0522 79.7786 0.0635 C83.0317 0.0681 86.2847 0.069 89.5378 0.0669 C93.3572 0.065 97.1765 0.0731 100.9959 0.0889 C102.3951 0.0932 103.7943 0.094 105.1935 0.0913 C107.1045 0.088 109.0151 0.0971 110.926 0.1093 C111.9942 0.1114 113.0624 0.1135 114.163 0.1156 C117.1852 0.382 119.3567 0.9834 122.0493 2.37 C122.8618 4.495 122.8618 4.495 123.0493 6.37 C118.7593 10.2424 114.1566 12.3177 108.8618 14.5575 C107.8841 14.977 106.9063 15.3964 105.899 15.8285 C92.9434 21.3547 79.8516 26.5612 66.7881 31.825 C55.7336 36.2793 44.6974 40.7761 33.6743 45.3075 C32.0754 45.9646 30.4764 46.6217 28.8775 47.2787 C26.4458 48.278 24.0142 49.2772 21.5826 50.2766 C9.8993 55.0773 -1.794 59.8538 -13.4863 64.6325 C-22.6093 68.3619 -31.7289 72.0993 -40.8413 75.8544 C-42.603 76.5797 -44.3647 77.305 -46.1264 78.0302 C-49.3906 79.3739 -52.6534 80.7206 -55.9155 82.0693 C-83.639 93.5041 -83.639 93.5041 -96.0132 96.12 C-96.8646 96.3147 -97.716 96.5093 -98.5932 96.7099 C-111.4693 99.5459 -124.1051 100.6707 -137.2519 100.6288 C-138.714 100.6316 -140.1761 100.6351 -141.6381 100.6395 C-145.5569 100.6485 -149.4756 100.6451 -153.3943 100.6387 C-157.5146 100.6336 -161.6348 100.6383 -165.7551 100.6415 C-172.6591 100.6451 -179.5632 100.6404 -186.4673 100.6308 C-194.4422 100.6199 -202.417 100.6235 -210.3919 100.6344 C-217.2627 100.6435 -224.1335 100.6448 -231.0044 100.6396 C-235.0984 100.6365 -239.1923 100.636 -243.2863 100.6426 C-247.1261 100.6484 -250.9659 100.6444 -254.8057 100.6328 C-256.213 100.6302 -257.6203 100.631 -259.0276 100.6354 C-260.9498 100.6408 -262.8715 100.634 -264.7937 100.624 C-265.8684 100.6233 -266.9431 100.6225 -268.0503 100.6217 C-271.045 100.3619 -273.2382 99.632 -275.9507 98.37 C-275.9507 96.72 -275.9507 95.07 -275.9507 93.37 C-270.2218 89.5032 -264.4084 86.6909 -257.9975 84.1396 C-257.0411 83.7518 -256.0847 83.364 -255.0992 82.9644 C-251.9691 81.6969 -248.8349 80.4398 -245.7007 79.1825 C-243.4977 78.2933 -241.2956 77.4016 -239.0937 76.5097 C-235.1422 74.9098 -231.1898 73.3121 -227.2361 71.7174 C-217.825 67.9211 -208.432 64.0809 -199.0418 60.2329 C-196.3129 59.1148 -193.5835 57.9978 -190.854 56.881 C-179.0499 52.0514 -167.2496 47.2124 -155.4507 42.37 C-142.1764 36.9226 -128.9012 31.4776 -115.6225 26.0409 C-113.7583 25.2776 -111.8942 24.5139 -110.0302 23.7499 C-104.8638 21.6326 -99.6951 19.5211 -94.523 17.4177 C-92.7695 16.7036 -91.0169 15.9874 -89.265 15.2694 C-86.6037 14.1792 -83.9396 13.0962 -81.2749 12.0146 C-80.485 11.6893 -79.6951 11.3641 -78.8813 11.029 C-70.1727 7.5124 -61.1679 5.1271 -51.9507 3.37 C-51.0754 3.1907 -51.0754 3.1907 -50.1824 3.0077 C-33.5393 -0.3167 -16.8879 -0.0584 0 0 Z " fill="#F4B01B" transform="translate(1859.9506556987762,158.62995505332947)"/>
<path d="M0 0 C2.0292 -0.0039 4.0585 -0.0082 6.0877 -0.013 C10.3084 -0.0204 14.5289 -0.0202 18.7495 -0.0149 C24.1553 -0.0091 29.5608 -0.0262 34.9665 -0.0492 C39.1427 -0.064 43.3187 -0.0648 47.4949 -0.0617 C49.4892 -0.0622 51.4835 -0.0675 53.4777 -0.0775 C56.2557 -0.0899 59.0331 -0.0831 61.811 -0.0715 C63.0391 -0.083 63.0391 -0.083 64.292 -0.0947 C68.9061 -0.0521 71.7714 0.4144 75.5859 3.3008 C75.2851 6.1084 74.6991 7.191 72.6499 9.1787 C68.7796 12.1373 64.2434 13.7204 59.75 15.5039 C58.2885 16.0959 58.2885 16.0959 56.7974 16.7 C54.1547 17.7689 51.5093 18.8305 48.8624 19.889 C46.0803 21.0039 43.3022 22.1287 40.5239 23.2529 C36.5714 24.8517 32.6179 26.448 28.663 28.041 C20.0324 31.5178 11.4217 35.0421 2.8167 38.5818 C-0.3455 39.8825 -3.5088 41.1808 -6.672 42.4792 C-9.0221 43.4439 -11.3722 44.4089 -13.7222 45.374 C-25.7312 50.3058 -37.7417 55.2341 -49.7536 60.1589 C-54.1553 61.9637 -58.5565 63.7698 -62.957 65.5776 C-75.7673 70.8401 -88.5842 76.0862 -101.4141 81.3008 C-102.1616 81.6049 -102.9091 81.9091 -103.6793 82.2225 C-131.9194 93.7046 -131.9194 93.7046 -142.3024 95.8588 C-143.7355 96.1588 -145.1661 96.4712 -146.5941 96.7947 C-168.4929 101.6262 -190.7257 100.8378 -213.0234 100.692 C-217.2503 100.6702 -221.477 100.6711 -225.7039 100.6723 C-229.7908 100.6717 -233.8777 100.6608 -237.9646 100.6463 C-239.9086 100.6399 -241.8527 100.636 -243.7967 100.6345 C-246.4945 100.6302 -249.1919 100.6127 -251.8896 100.5913 C-253.0801 100.5927 -253.0801 100.5927 -254.2947 100.5941 C-258.4503 100.5459 -261.6148 100.197 -265.4141 98.3008 C-265.4141 96.6508 -265.4141 95.0008 -265.4141 93.3008 C-259.6353 89.3932 -253.755 86.575 -247.2852 84 C-245.8303 83.4102 -245.8303 83.4102 -244.3461 82.8085 C-241.728 81.7485 -239.1074 80.695 -236.4855 79.6443 C-233.7195 78.5338 -230.9572 77.4144 -228.1946 76.2954 C-224.8236 74.9306 -221.4523 73.5663 -218.0795 72.2058 C-209.0162 68.5498 -199.9702 64.8526 -190.9322 61.1344 C-187.0038 59.5186 -183.0741 57.9058 -179.1445 56.293 C-178.3601 55.9709 -177.5757 55.6489 -176.7674 55.3172 C-165.1331 50.5422 -153.4915 45.7849 -141.8503 41.0266 C-132.0272 37.0107 -122.2085 32.9845 -112.3963 28.9421 C-105.942 26.2839 -99.4828 23.6379 -93.0197 21.0013 C-89.465 19.5507 -85.9125 18.0954 -82.3667 16.623 C-67.3338 10.3844 -52.5512 5.001 -36.4141 2.3008 C-35.4091 2.1308 -34.4042 1.9609 -33.3688 1.7857 C-22.2368 0.0982 -11.2426 -0.0091 0 0 Z " fill="#F4B01B" transform="translate(1673.4140625,158.69921875)"/>
<path d="M0 0 C0 21.12 0 42.24 0 64 C-32.9007 64.0806 -32.9007 64.0806 -46.6777 64.0977 C-56.194 64.1095 -65.7101 64.1235 -75.2263 64.1509 C-82.1566 64.1708 -89.0869 64.1837 -96.0172 64.1882 C-99.6867 64.1908 -103.3561 64.1969 -107.0255 64.2115 C-110.4802 64.225 -113.9348 64.2292 -117.3895 64.2262 C-118.6565 64.2268 -119.9235 64.2307 -121.1904 64.2384 C-122.9227 64.2484 -124.6551 64.2448 -126.3875 64.2405 C-127.3563 64.2424 -128.3251 64.2442 -129.3233 64.2461 C-132.2462 63.9774 -134.3869 63.3277 -137 62 C-137.8125 59.875 -137.8125 59.875 -138 58 C-133.1354 53.4379 -128.2369 51.1275 -122.0664 48.6992 C-121.0935 48.3059 -120.1205 47.9127 -119.1181 47.5075 C-116.4844 46.4449 -113.847 45.392 -111.2078 44.3431 C-108.4315 43.2368 -105.6605 42.1176 -102.8892 40.999 C-98.9463 39.4087 -95.0022 37.8215 -91.0562 36.2389 C-82.4253 32.7768 -73.8195 29.2552 -65.2203 25.7153 C-61.3289 24.1136 -57.4358 22.5161 -53.543 20.918 C-52.3946 20.4463 -52.3946 20.4463 -51.223 19.9651 C-45.1462 17.4695 -39.0674 14.9785 -32.9883 12.4883 C-30.2686 11.3739 -27.549 10.2594 -24.8294 9.1449 C-23.0806 8.4284 -21.3317 7.7122 -19.5827 6.9962 C-17.1733 6.0099 -14.7644 5.0226 -12.3555 4.0352 C-11.6367 3.7412 -10.9179 3.4472 -10.1773 3.1444 C-2.5125 0 -2.5125 0 0 0 Z " fill="#F4B01B" transform="translate(2212,195)"/>
</svg>
